<mxfile host="app.diagrams.net" modified="2021-10-09T06:30:58.246Z" agent="5.0 (Windows NT 10.0; Win64; x64) AppleWebKit/537.36 (KHTML, like Gecko) Chrome/94.0.4606.54 Safari/537.36" etag="j8XXN7d3_GMLqJkokyZE" version="15.3.7" type="github">
  <diagram id="nPRP63mBERfEw6qS9ktG" name="第 1 页">
    <mxGraphModel dx="2249" dy="772" grid="1" gridSize="10" guides="1" tooltips="1" connect="1" arrows="1" fold="1" page="1" pageScale="1" pageWidth="827" pageHeight="1169" math="0" shadow="0">
      <root>
        <mxCell id="0" />
        <mxCell id="1" parent="0" />
        <mxCell id="-dQNFJ3fWqRN0rx37OC3-9" value="" style="edgeStyle=orthogonalEdgeStyle;rounded=0;orthogonalLoop=1;jettySize=auto;html=1;" edge="1" parent="1" source="-dQNFJ3fWqRN0rx37OC3-2" target="-dQNFJ3fWqRN0rx37OC3-8">
          <mxGeometry relative="1" as="geometry" />
        </mxCell>
        <mxCell id="-dQNFJ3fWqRN0rx37OC3-2" value="&lt;span&gt;mave-aliyun镜像&lt;/span&gt;" style="rounded=1;whiteSpace=wrap;html=1;fillColor=#6d8764;strokeColor=#3A5431;fontColor=#ffffff;" vertex="1" parent="1">
          <mxGeometry x="550" y="210" width="120" height="60" as="geometry" />
        </mxCell>
        <mxCell id="-dQNFJ3fWqRN0rx37OC3-8" value="&lt;span&gt;maven中央仓库&lt;/span&gt;" style="whiteSpace=wrap;html=1;rounded=1;fillColor=#e51400;strokeColor=#B20000;fontColor=#ffffff;" vertex="1" parent="1">
          <mxGeometry x="720" y="210" width="120" height="60" as="geometry" />
        </mxCell>
        <mxCell id="-dQNFJ3fWqRN0rx37OC3-14" style="edgeStyle=orthogonalEdgeStyle;rounded=0;orthogonalLoop=1;jettySize=auto;html=1;exitX=1;exitY=0.5;exitDx=0;exitDy=0;entryX=0;entryY=0.5;entryDx=0;entryDy=0;" edge="1" parent="1" source="-dQNFJ3fWqRN0rx37OC3-13" target="-dQNFJ3fWqRN0rx37OC3-2">
          <mxGeometry relative="1" as="geometry" />
        </mxCell>
        <mxCell id="-dQNFJ3fWqRN0rx37OC3-13" value="maven-central代理仓库" style="rounded=1;whiteSpace=wrap;html=1;fillColor=#e3c800;strokeColor=#B09500;fontColor=#000000;" vertex="1" parent="1">
          <mxGeometry x="370" y="210" width="120" height="60" as="geometry" />
        </mxCell>
        <mxCell id="-dQNFJ3fWqRN0rx37OC3-16" style="edgeStyle=orthogonalEdgeStyle;rounded=0;orthogonalLoop=1;jettySize=auto;html=1;exitX=1;exitY=0.5;exitDx=0;exitDy=0;entryX=0;entryY=0.5;entryDx=0;entryDy=0;" edge="1" parent="1" source="-dQNFJ3fWqRN0rx37OC3-15" target="-dQNFJ3fWqRN0rx37OC3-13">
          <mxGeometry relative="1" as="geometry" />
        </mxCell>
        <mxCell id="-dQNFJ3fWqRN0rx37OC3-27" style="edgeStyle=orthogonalEdgeStyle;rounded=0;orthogonalLoop=1;jettySize=auto;html=1;exitX=0.5;exitY=1;exitDx=0;exitDy=0;entryX=0.5;entryY=0;entryDx=0;entryDy=0;" edge="1" parent="1" source="-dQNFJ3fWqRN0rx37OC3-15" target="-dQNFJ3fWqRN0rx37OC3-19">
          <mxGeometry relative="1" as="geometry" />
        </mxCell>
        <mxCell id="-dQNFJ3fWqRN0rx37OC3-42" style="edgeStyle=orthogonalEdgeStyle;rounded=0;orthogonalLoop=1;jettySize=auto;html=1;exitX=1;exitY=0.75;exitDx=0;exitDy=0;entryX=1;entryY=0.5;entryDx=0;entryDy=0;" edge="1" parent="1" source="-dQNFJ3fWqRN0rx37OC3-15" target="-dQNFJ3fWqRN0rx37OC3-20">
          <mxGeometry relative="1" as="geometry" />
        </mxCell>
        <mxCell id="-dQNFJ3fWqRN0rx37OC3-46" style="edgeStyle=orthogonalEdgeStyle;rounded=0;orthogonalLoop=1;jettySize=auto;html=1;exitX=1;exitY=0.5;exitDx=0;exitDy=0;entryX=0;entryY=0.5;entryDx=0;entryDy=0;" edge="1" parent="1" source="-dQNFJ3fWqRN0rx37OC3-15" target="-dQNFJ3fWqRN0rx37OC3-43">
          <mxGeometry relative="1" as="geometry" />
        </mxCell>
        <mxCell id="-dQNFJ3fWqRN0rx37OC3-15" value="maven-public仓库组" style="rounded=1;whiteSpace=wrap;html=1;fillColor=#fff2cc;strokeColor=#d6b656;" vertex="1" parent="1">
          <mxGeometry x="155" y="210" width="130" height="60" as="geometry" />
        </mxCell>
        <mxCell id="-dQNFJ3fWqRN0rx37OC3-18" style="edgeStyle=orthogonalEdgeStyle;rounded=0;orthogonalLoop=1;jettySize=auto;html=1;exitX=1;exitY=0.5;exitDx=0;exitDy=0;entryX=0;entryY=0.5;entryDx=0;entryDy=0;" edge="1" parent="1" source="-dQNFJ3fWqRN0rx37OC3-17" target="-dQNFJ3fWqRN0rx37OC3-15">
          <mxGeometry relative="1" as="geometry">
            <Array as="points">
              <mxPoint x="40" y="360" />
              <mxPoint x="40" y="240" />
            </Array>
          </mxGeometry>
        </mxCell>
        <mxCell id="-dQNFJ3fWqRN0rx37OC3-30" style="edgeStyle=orthogonalEdgeStyle;rounded=0;orthogonalLoop=1;jettySize=auto;html=1;exitX=1;exitY=0.5;exitDx=0;exitDy=0;entryX=0;entryY=0.5;entryDx=0;entryDy=0;" edge="1" parent="1" source="-dQNFJ3fWqRN0rx37OC3-17" target="-dQNFJ3fWqRN0rx37OC3-20">
          <mxGeometry relative="1" as="geometry">
            <Array as="points">
              <mxPoint x="40" y="360" />
              <mxPoint x="40" y="520" />
            </Array>
          </mxGeometry>
        </mxCell>
        <mxCell id="-dQNFJ3fWqRN0rx37OC3-31" value="部署" style="edgeLabel;html=1;align=center;verticalAlign=middle;resizable=0;points=[];" vertex="1" connectable="0" parent="-dQNFJ3fWqRN0rx37OC3-30">
          <mxGeometry x="0.5392" y="2" relative="1" as="geometry">
            <mxPoint as="offset" />
          </mxGeometry>
        </mxCell>
        <mxCell id="-dQNFJ3fWqRN0rx37OC3-41" style="edgeStyle=orthogonalEdgeStyle;rounded=0;orthogonalLoop=1;jettySize=auto;html=1;exitX=1;exitY=0.5;exitDx=0;exitDy=0;entryX=0;entryY=0.5;entryDx=0;entryDy=0;" edge="1" parent="1" source="-dQNFJ3fWqRN0rx37OC3-17" target="-dQNFJ3fWqRN0rx37OC3-19">
          <mxGeometry relative="1" as="geometry">
            <Array as="points">
              <mxPoint x="40" y="360" />
              <mxPoint x="40" y="400" />
            </Array>
          </mxGeometry>
        </mxCell>
        <mxCell id="-dQNFJ3fWqRN0rx37OC3-17" value="工程A" style="ellipse;whiteSpace=wrap;html=1;aspect=fixed;fillColor=#dae8fc;strokeColor=#6c8ebf;" vertex="1" parent="1">
          <mxGeometry x="-150" y="320" width="80" height="80" as="geometry" />
        </mxCell>
        <mxCell id="-dQNFJ3fWqRN0rx37OC3-19" value="maven-snapshot" style="rounded=1;whiteSpace=wrap;html=1;fillColor=#e3c800;strokeColor=#B09500;fontColor=#000000;" vertex="1" parent="1">
          <mxGeometry x="165" y="370" width="120" height="60" as="geometry" />
        </mxCell>
        <mxCell id="-dQNFJ3fWqRN0rx37OC3-20" value="maven-release" style="rounded=1;whiteSpace=wrap;html=1;fillColor=#e3c800;strokeColor=#B09500;fontColor=#000000;" vertex="1" parent="1">
          <mxGeometry x="165" y="490" width="120" height="60" as="geometry" />
        </mxCell>
        <mxCell id="-dQNFJ3fWqRN0rx37OC3-21" value="第二步：所有开源的依赖走这条链路" style="text;html=1;strokeColor=none;fillColor=none;align=center;verticalAlign=middle;whiteSpace=wrap;rounded=0;" vertex="1" parent="1">
          <mxGeometry x="360" y="180" width="230" height="20" as="geometry" />
        </mxCell>
        <mxCell id="-dQNFJ3fWqRN0rx37OC3-22" value="第一步：本地工程，处于snapshot阶段" style="text;html=1;strokeColor=none;fillColor=none;align=center;verticalAlign=middle;whiteSpace=wrap;rounded=0;" vertex="1" parent="1">
          <mxGeometry x="-200" y="280" width="220" height="30" as="geometry" />
        </mxCell>
        <mxCell id="-dQNFJ3fWqRN0rx37OC3-26" style="edgeStyle=orthogonalEdgeStyle;rounded=0;orthogonalLoop=1;jettySize=auto;html=1;exitX=1;exitY=0.5;exitDx=0;exitDy=0;entryX=0.5;entryY=0;entryDx=0;entryDy=0;" edge="1" parent="1" source="-dQNFJ3fWqRN0rx37OC3-25" target="-dQNFJ3fWqRN0rx37OC3-15">
          <mxGeometry relative="1" as="geometry" />
        </mxCell>
        <mxCell id="-dQNFJ3fWqRN0rx37OC3-25" value="工程B，依赖工程A，处于snapshot阶段" style="ellipse;whiteSpace=wrap;html=1;aspect=fixed;fillColor=#dae8fc;strokeColor=#6c8ebf;" vertex="1" parent="1">
          <mxGeometry x="-190" y="110" width="80" height="80" as="geometry" />
        </mxCell>
        <mxCell id="-dQNFJ3fWqRN0rx37OC3-35" value="第三步：开发过程中，工程A将SNAPSHOT包发布到maven-snapshot仓库中" style="text;html=1;strokeColor=none;fillColor=none;align=center;verticalAlign=middle;whiteSpace=wrap;rounded=0;" vertex="1" parent="1">
          <mxGeometry x="-130" y="450" width="270" height="50" as="geometry" />
        </mxCell>
        <mxCell id="-dQNFJ3fWqRN0rx37OC3-39" value="&lt;span style=&quot;font-size: 11px ; background-color: rgb(255 , 255 , 255)&quot;&gt;第四步：工程B依赖工程A的snapshot包进行开发&lt;/span&gt;" style="text;html=1;strokeColor=none;fillColor=none;align=center;verticalAlign=middle;whiteSpace=wrap;rounded=0;" vertex="1" parent="1">
          <mxGeometry x="105" y="290" width="180" height="50" as="geometry" />
        </mxCell>
        <mxCell id="-dQNFJ3fWqRN0rx37OC3-40" value="&lt;span style=&quot;font-size: 11px ; background-color: rgb(255 , 255 , 255)&quot;&gt;第五步：工程B依赖工程A的release包进行开发&lt;/span&gt;" style="text;html=1;strokeColor=none;fillColor=none;align=center;verticalAlign=middle;whiteSpace=wrap;rounded=0;" vertex="1" parent="1">
          <mxGeometry x="234" y="440" width="180" height="50" as="geometry" />
        </mxCell>
        <mxCell id="-dQNFJ3fWqRN0rx37OC3-43" value="3rd-party仓库" style="rounded=1;whiteSpace=wrap;html=1;fillColor=#e3c800;strokeColor=#B09500;fontColor=#000000;" vertex="1" parent="1">
          <mxGeometry x="370" y="310" width="120" height="60" as="geometry" />
        </mxCell>
        <mxCell id="-dQNFJ3fWqRN0rx37OC3-45" style="edgeStyle=orthogonalEdgeStyle;rounded=0;orthogonalLoop=1;jettySize=auto;html=1;" edge="1" parent="1" source="-dQNFJ3fWqRN0rx37OC3-44" target="-dQNFJ3fWqRN0rx37OC3-43">
          <mxGeometry relative="1" as="geometry" />
        </mxCell>
        <mxCell id="-dQNFJ3fWqRN0rx37OC3-44" value="将第三方依赖包（比如：付费）手动上传到3rd-party仓库" style="ellipse;whiteSpace=wrap;html=1;fillColor=#76608a;strokeColor=#432D57;fontColor=#ffffff;" vertex="1" parent="1">
          <mxGeometry x="540" y="300" width="120" height="80" as="geometry" />
        </mxCell>
      </root>
    </mxGraphModel>
  </diagram>
</mxfile>
